<svg width="61" height="21" viewBox="0 0 61 21" fill="none" xmlns="http://www.w3.org/2000/svg">
<path d="M51.5811 3.60318H53.342V1.00677L56.668 0V3.60318H59.7985V6.62348H56.668V11.9223C56.668 12.8761 56.7657 13.5649 56.9126 13.9888C57.1084 14.4127 57.4507 14.6247 57.9398 14.6247C58.2821 14.6247 58.5757 14.5717 58.8203 14.5187C59.0648 14.4657 59.3585 14.3067 59.6517 14.2008L60.2389 16.9561C59.7985 17.1681 59.2603 17.38 58.6248 17.592C58.0376 17.7509 57.4017 17.8569 56.7657 17.8569C55.592 17.8569 54.7116 17.539 54.1734 16.8501C53.6356 16.2143 53.342 15.1015 53.342 13.6179V6.67646H51.6301L51.5811 3.60318Z" fill="white"/>
<path d="M0.760742 15.7368L2.22814 13.1934C3.15748 14.1472 5.0651 15.101 6.63032 15.101C8.09771 15.101 8.7825 14.4651 8.7825 13.6173C8.7825 11.3388 1.20096 13.1934 1.20096 7.73564C1.20096 5.40417 3.05966 3.39062 6.43468 3.39062C8.58682 3.39062 10.3477 4.18543 11.5705 5.29819L10.2499 7.78861C9.46729 6.88782 8.0488 6.19897 6.48359 6.19897C5.26075 6.19897 4.47814 6.78184 4.47814 7.57668C4.47814 9.64319 12.0597 7.94761 12.0597 13.5113C12.0597 16.0547 10.1031 17.9623 6.5325 17.9623C4.28248 17.9093 2.13031 17.0615 0.760742 15.7368Z" fill="white"/>
<path d="M36.3687 10.5975C36.3687 6.67638 38.9121 3.33813 43.1185 3.33813C47.3741 3.33813 49.9177 6.67638 49.9177 10.5975C49.9177 14.5716 47.3741 17.8568 43.1185 17.8568C38.9121 17.9098 36.3687 14.5716 36.3687 10.5975ZM46.3959 10.5975C46.3959 8.47794 45.2218 6.57039 43.1185 6.57039C41.0644 6.57039 39.8903 8.47794 39.8903 10.5975C39.8903 12.77 41.0644 14.6245 43.1676 14.6245C45.2218 14.6245 46.3959 12.77 46.3959 10.5975Z" fill="white"/>
<path d="M28.183 19.9893C26.9752 19.5124 26.3248 17.9758 26.7893 16.5981L31.3884 1.76148C31.8064 0.383792 33.1536 -0.35804 34.3615 0.171839C35.5693 0.64873 36.2196 2.18538 35.7551 3.56307L31.1561 18.3997C30.738 19.7774 29.3908 20.4662 28.183 19.9893Z" fill="#1480ED" fill-opacity="0.75"/>
<path d="M18.9393 19.9893C17.7315 19.5124 17.0811 17.9758 17.5457 16.5981L22.1447 1.76148C22.5628 0.383792 23.91 -0.35804 25.1178 0.171839C26.3257 0.64873 26.976 2.18538 26.5115 3.56307L21.9125 18.3997C21.4943 19.7774 20.1472 20.4662 18.9393 19.9893Z" fill="#1480ED" fill-opacity="0.75"/>
<path d="M29.7174 19.9893C30.9252 19.5124 31.5756 17.9758 31.1111 16.5981L26.512 1.76148C26.0939 0.383792 24.7467 -0.35804 23.5389 0.171839C22.3311 0.64873 21.6807 2.18538 22.1453 3.56307L26.7443 18.3997C27.1624 19.7774 28.5096 20.4662 29.7174 19.9893Z" fill="#1480ED" fill-opacity="0.75"/>
<path d="M20.5646 19.9893C21.7724 19.5124 22.4228 17.9758 21.9582 16.5981L17.3592 1.76148C16.9411 0.383792 15.5939 -0.35804 14.3861 0.171839C13.1783 0.64873 12.5279 2.18538 12.9924 3.56307L17.5915 18.3997C18.0096 19.7774 19.3568 20.4662 20.5646 19.9893Z" fill="#1480ED" fill-opacity="0.75"/>
</svg>
