<svg width="151" height="24" viewBox="0 0 151 24" fill="none" xmlns="http://www.w3.org/2000/svg">
<path d="M13.8159 13.7865H5.26251V19.3158H14.8388V23.6296H0V0.355957H14.3348V4.66973H5.26251V9.51717H13.8308V13.7865H13.8159Z" fill="white"/>
<path d="M23.837 17.6555L22.1915 23.6296H16.7511L23.8518 0.355957H30.7301L37.979 23.6296H32.3163L30.5226 17.6555H23.837ZM29.7517 13.742L28.299 8.79079C27.8987 7.41217 27.4837 5.67776 27.1279 4.31396H27.0538C26.7128 5.67776 26.357 7.44181 25.9864 8.80562L24.593 13.742H29.7517Z" fill="white"/>
<path d="M41.2699 18.2039C42.6634 18.9451 44.8573 19.6715 47.0957 19.6715C49.512 19.6715 50.7869 18.6634 50.7869 17.1366C50.7869 15.7135 49.6751 14.8685 46.8882 13.8901C43.0043 12.5115 40.4694 10.3917 40.4694 6.99698C40.4694 3.02416 43.8048 0.0148926 49.2749 0.0148926C51.9283 0.0148926 53.8406 0.548555 55.2193 1.18599L54.063 5.41082C53.1439 4.9661 51.4688 4.29902 49.2007 4.29902C46.903 4.29902 45.8209 5.36634 45.8209 6.55226C45.8209 8.03466 47.1106 8.68691 50.1346 9.82836C54.2557 11.3701 56.168 13.5047 56.168 16.7956C56.168 20.6795 53.1884 24.0149 46.7844 24.0149C44.1458 24.0149 41.5071 23.3033 40.2174 22.5621L41.2699 18.2039Z" fill="white"/>
<path d="M65.1068 23.6296V14.0978L57.7542 0.355957H63.7875L66.1593 5.95942C66.8709 7.63452 67.3897 8.87974 67.953 10.4214H68.0272C68.546 8.96868 69.1093 7.60488 69.7764 5.95942L72.1186 0.370781H78.0482L70.3693 13.9199V23.6444H65.1068V23.6296Z" fill="white"/>
<path d="M90.6931 4.7735H84.4077V0.355957H102.315V4.7735H95.9408V23.6296H90.6783V4.7735H90.6931Z" fill="#FEC500"/>
<path d="M108.037 17.6555L106.392 23.6296H100.951L108.052 0.355957H114.93L122.179 23.6296H116.516L114.723 17.6555H108.037ZM113.937 13.742L112.484 8.79079C112.084 7.41217 111.669 5.67776 111.313 4.31396H111.239C110.898 5.67776 110.542 7.44181 110.172 8.80562L108.778 13.742H113.937Z" fill="#FEC500"/>
<path d="M136.692 23.6296L134.602 19.4196C133.757 17.7889 133.179 16.5734 132.541 15.2244H132.467C131.978 16.5734 131.414 17.7889 130.658 19.4048L128.731 23.6296H122.742L129.473 11.8445L122.98 0.355957H129.028L131.059 4.59561C131.741 6.00389 132.245 7.16016 132.793 8.46467H132.882C133.445 6.98227 133.875 5.95942 134.468 4.61044L136.425 0.355957H142.429L135.876 11.7111L142.784 23.6296H136.692Z" fill="#FEC500"/>
<path d="M150.893 0.355957V23.6296H145.631V0.355957H150.893Z" fill="#FEC500"/>
</svg>
