<svg width="53" height="64" viewBox="0 0 53 64" fill="none" xmlns="http://www.w3.org/2000/svg">
<path d="M35.0042 57.0667C34.8236 57.0667 34.625 56.9894 34.4083 56.8347C34.1917 56.68 34.0292 56.4907 33.9208 56.2667L28.6667 45.3334H22.1667C21.5528 45.3334 21.0378 45.0774 20.6218 44.5654C20.2058 44.0534 19.9986 43.4205 20 42.6667C20 41.9111 20.208 41.2774 20.624 40.7654C21.04 40.2534 21.5542 39.9983 22.1667 40H28.6667L33.9208 29.0667C34.0292 28.8445 34.1917 28.6551 34.4083 28.4987C34.625 28.3423 34.8417 28.2649 35.0583 28.2667C35.5278 28.2667 35.8708 28.4551 36.0875 28.832C36.3042 29.2089 36.3403 29.6649 36.1958 30.2L33.8667 40H40.0417L41.2875 37.9334C41.3958 37.7556 41.5497 37.6107 41.749 37.4987C41.9483 37.3867 42.1376 37.3316 42.3167 37.3334C42.75 37.3334 43.0663 37.5111 43.2657 37.8667C43.465 38.2222 43.5098 38.6445 43.4 39.1334L42.5333 42.6667L43.4 46.2C43.5083 46.6889 43.4542 47.1111 43.2375 47.4667C43.0208 47.8223 42.6958 48 42.2625 48C42.0819 48 41.9014 47.944 41.7208 47.832C41.5403 47.72 41.3958 47.576 41.2875 47.4L40.0417 45.3334H33.8667L36.1958 55.1334C36.3403 55.6667 36.2948 56.1227 36.0593 56.5014C35.8239 56.88 35.4722 57.0685 35.0042 57.0667ZM17.9417 35.7334C17.4722 35.7334 17.1292 35.544 16.9125 35.1654C16.6958 34.7867 16.6597 34.3316 16.8042 33.8L19.1333 24H12.9583L11.7125 26.0667C11.6042 26.2445 11.4503 26.3894 11.251 26.5014C11.0517 26.6134 10.8624 26.6685 10.6833 26.6667C10.25 26.6667 9.93367 26.4889 9.73433 26.1334C9.535 25.7778 9.49022 25.3556 9.6 24.8667L10.4667 21.3334L9.6 17.8C9.49167 17.3111 9.54583 16.8889 9.7625 16.5334C9.97917 16.1778 10.3042 16 10.7375 16C10.9181 16 11.0986 16.056 11.2792 16.168C11.4597 16.28 11.6042 16.424 11.7125 16.6L12.9583 18.6667H19.1333L16.8042 8.8667C16.6597 8.33336 16.7052 7.87736 16.9407 7.4987C17.1761 7.12003 17.5278 6.93158 17.9958 6.93336C18.1764 6.93336 18.375 7.01158 18.5917 7.16803C18.8083 7.32447 18.9708 7.51292 19.0792 7.73336L24.3333 18.6667H30.8333C31.4472 18.6667 31.9622 18.9227 32.3782 19.4347C32.7942 19.9467 33.0014 20.5796 33 21.3334C33 22.0889 32.792 22.7227 32.376 23.2347C31.96 23.7467 31.4458 24.0018 30.8333 24H24.3333L19.0792 34.9334C18.9708 35.1556 18.8083 35.3449 18.5917 35.5014C18.375 35.6578 18.1583 35.7351 17.9417 35.7334Z" fill="#FEC500"/>
</svg>
