<svg width="52" height="52" viewBox="0 0 52 52" fill="none" xmlns="http://www.w3.org/2000/svg">
<path d="M17.5717 42.1417C15.176 41.2593 13.0441 39.7822 11.3764 37.8491C9.70876 35.9161 8.56006 33.5908 8.03836 31.0917L4.44169 14.17C3.92169 11.83 5.41669 9.53333 7.75669 9.03499L28.925 4.54999L28.99 4.52833C31.3084 4.07333 33.5834 5.56833 34.06 7.86499L34.8184 11.4833L44.2434 13.4983H44.3084C46.5834 14.0183 48.0567 16.315 47.58 18.6117L43.9833 35.555C43.5682 37.5013 42.7737 39.3468 41.6452 40.986C40.5167 42.6253 39.0764 44.0261 37.4064 45.1086C35.7364 46.1911 33.8695 46.9339 31.9124 47.2948C29.9553 47.6556 27.9462 47.6274 26 47.2117C22.6984 46.5226 19.7275 44.7355 17.5717 42.1417ZM43.3334 17.7233L22.165 13.2167L18.5684 30.16V30.225C17.3334 36.0317 21.0817 41.7517 26.91 42.9867C32.7384 44.2217 38.5017 40.495 39.7367 34.6667L43.3334 17.7233ZM34.6667 35.75C33.9822 36.9088 32.9508 37.823 31.7182 38.3635C30.4857 38.9039 29.1144 39.0432 27.7984 38.7617C26.4864 38.4809 25.2948 37.7976 24.3899 36.8072C23.4849 35.8168 22.9116 34.5685 22.75 33.2367L34.6667 35.75ZM18.3517 11.2017L8.66669 13.2817L12.2634 30.2033L12.285 30.2683C12.61 31.8067 13.26 33.1933 14.1484 34.385C13.9317 32.7167 13.975 30.9833 14.3434 29.25L15.275 24.9167C14.3 24.7433 13.455 24.2017 13 23.4217C13.13 22.1 14.2134 20.93 15.7084 20.5833H16.25L17.94 12.3283C18.0267 11.9167 18.1567 11.5483 18.3517 11.2017ZM32.565 26.4983C33.2584 25.35 34.7317 24.7433 36.2267 25.0683C37.7217 25.3717 38.805 26.52 39 27.8633C38.285 28.99 36.8334 29.5967 35.3167 29.25C33.8217 28.9683 32.7384 27.82 32.565 26.4983ZM21.9917 24.245C22.685 23.0967 24.1367 22.49 25.6317 22.815C27.0834 23.1183 28.2317 24.2883 28.405 25.61C27.69 26.7367 26.2384 27.365 24.7434 27.0833C23.2484 26.715 22.165 25.5667 21.9917 24.245ZM25.935 9.59833L30.1817 10.5083L29.835 8.77499L25.935 9.59833Z" fill="#FEC500"/>
</svg>
