<svg width="48" height="48" viewBox="0 0 48 48" fill="none" xmlns="http://www.w3.org/2000/svg">
<path d="M45.4359 14.2564C42.001 14.0674 38.5933 14.9602 35.6923 16.8092C34.9908 16.0103 34.2698 15.2113 33.5098 14.4513L32.9446 13.9251L33.2174 13.6913C34.1704 12.8732 34.8495 11.7825 35.1632 10.5664C35.4768 9.35024 35.4098 8.06715 34.9713 6.89026C34.3378 5.56158 33.3321 4.44546 32.0763 3.67748C30.8206 2.9095 29.3688 2.52271 27.8974 2.5641V6.46154C28.5908 6.45189 29.2742 6.62739 29.8771 6.96994C30.48 7.3125 30.9805 7.8097 31.3272 8.41026C31.6585 9.18974 31.3272 10.0472 30.4113 10.9631L29.9631 11.3723C27.9304 9.67859 25.6989 8.23892 23.318 7.08513C18.3877 4.86359 15.8544 5.89641 14.6072 7.08513C14.2272 7.46608 13.923 7.91576 13.7108 8.41026L13.36 9.44308L10.5539 17.9005C12.7754 23.4349 18.1539 33.2759 29.8462 37.5241L39.5898 34.2892C39.9183 34.1669 40.2078 33.9582 40.4277 33.6851L40.8369 33.3344C43.6236 30.5282 41.8308 25.1303 38.0892 19.8882C40.3109 18.5916 42.869 17.9877 45.4359 18.1538V14.2564ZM38.0503 30.5672H37.9333C36.5887 31.2882 31.0154 29.4564 24.7015 23.1426C24.039 22.48 23.4154 21.8369 22.8503 21.1938C22.6554 20.9795 22.48 20.7456 22.2851 20.5118L21.2523 19.2646L20.7067 18.5046C20.4339 18.1344 20.161 17.7641 19.9272 17.4133C19.6933 17.0626 19.6154 16.9067 19.4595 16.6533C19.3036 16.4 19.0308 15.9908 18.8554 15.6595C18.68 15.3282 18.6021 15.1918 18.4851 14.9385C18.3682 14.6851 18.1539 14.3928 18.0369 14.12C17.92 13.8472 17.8616 13.6718 17.7641 13.4574C17.6667 13.2431 17.5498 12.9313 17.4718 12.6779C17.3939 12.4246 17.3744 12.3077 17.3354 12.1128C17.2964 11.9179 17.2185 11.6451 17.1795 11.4503C17.1701 11.2945 17.1701 11.1383 17.1795 10.9826C17.1603 10.8142 17.1603 10.6442 17.1795 10.4759L17.3939 9.87179C17.7251 9.52102 19.1672 9.42359 21.7395 10.5928C23.4586 11.4187 25.0851 12.4246 26.5918 13.5938C25.7704 13.9564 24.8946 14.1803 24 14.2564V18.1538C26.0703 18.0364 28.079 17.407 29.8462 16.3221L30.801 17.2185C31.6585 18.0564 32.4185 18.8944 33.12 19.6933C31.945 21.6969 31.4783 24.0375 31.7949 26.3385L35.6923 25.5785C35.5606 24.8438 35.5606 24.0916 35.6923 23.3569C38.2062 27.1959 38.6739 29.9631 38.0503 30.5672ZM9.18976 22.0513L4.84412 35.1077C4.53047 36.0663 4.44811 37.0855 4.60379 38.082C4.75947 39.0785 5.14876 40.024 5.73983 40.8413C6.33091 41.6585 7.10699 42.3243 8.00465 42.7841C8.9023 43.244 9.89604 43.4849 10.9046 43.4872C11.5677 43.4807 12.2254 43.3689 12.8533 43.1559L25.559 38.9272C18.388 35.2649 12.6318 29.3306 9.18976 22.0513Z" fill="#FEC500"/>
</svg>
