<svg width="43" height="50" viewBox="0 0 43 50" fill="none" xmlns="http://www.w3.org/2000/svg">
<path d="M42.0082 29.4094C41.8448 29.4043 41.6908 29.4984 41.6223 29.6485L41.5421 29.8246C41.0807 30.8382 40.6449 31.7958 40.0264 32.6881C38.2861 35.1982 35.6846 37.1391 32.0734 38.6214C29.8566 39.5313 27.3643 40.1163 24.6376 40.3715V19.5795C28.5556 18.2788 31.3905 14.5817 31.3905 10.2327C31.3905 4.8025 26.9726 0.384644 21.5426 0.384644C16.1126 0.384644 11.6947 4.8027 11.6947 10.2327C11.6947 14.5819 14.5296 18.2788 18.4476 19.5795V40.3566C17.9443 40.3102 17.4479 40.2547 16.9501 40.1768C13.09 39.5735 9.79351 38.3754 7.15294 36.6153C5.71639 35.6577 4.50133 34.5525 3.54151 33.3301C2.62935 32.1684 2.01497 30.8752 1.46379 29.6503C1.39609 29.4998 1.2425 29.3967 1.08011 29.4092C0.915263 29.4133 0.769236 29.5164 0.709516 29.67C-0.259912 32.1686 0.0628216 34.6413 0.504382 36.2756C2.52771 43.7659 10.0326 47.8967 15.8445 49.1581C17.7191 49.5651 19.6455 49.7715 21.5696 49.7713C26.1895 49.7713 30.5961 48.599 34.3129 46.3812C37.5768 44.4335 40.0886 41.8373 41.5769 38.8736C43.1259 35.7884 43.4177 32.4351 42.3778 29.6737C42.3191 29.5194 42.1734 29.4149 42.0082 29.4094ZM21.5424 6.01203C23.8696 6.01203 25.7631 7.90549 25.7631 10.2327C25.7631 12.56 23.8696 14.4532 21.5424 14.4532C19.2152 14.4532 17.3217 12.56 17.3217 10.2327C17.3217 7.90549 19.2152 6.01203 21.5424 6.01203Z" fill="#FEC500"/>
</svg>
