<svg width="64" height="64" viewBox="0 0 64 64" fill="none" xmlns="http://www.w3.org/2000/svg">
<path d="M29.3333 37.3334H34.6667V29.3334H42.6667V24H34.6667V16H29.3333V24H21.3333V29.3334H29.3333V37.3334ZM32 51.6C37.4222 46.6223 41.4444 42.0996 44.0667 38.032C46.6889 33.9645 48 30.3538 48 27.2C48 22.3556 46.4551 18.3894 43.3653 15.3014C40.2756 12.2134 36.4871 10.6685 32 10.6667C27.5111 10.6667 23.7218 12.2116 20.632 15.3014C17.5422 18.3912 15.9982 22.3574 16 27.2C16 30.3556 17.3111 33.9672 19.9333 38.0347C22.5556 42.1023 26.5778 46.624 32 51.6ZM32 58.6667C24.8444 52.5778 19.5004 46.9227 15.968 41.7014C12.4356 36.48 10.6684 31.6463 10.6667 27.2C10.6667 20.5334 12.8116 15.2223 17.1013 11.2667C21.3911 7.31115 26.3573 5.33337 32 5.33337C37.6444 5.33337 42.6116 7.31115 46.9013 11.2667C51.1911 15.2223 53.3351 20.5334 53.3333 27.2C53.3333 31.6445 51.5662 36.4783 48.032 41.7014C44.4978 46.9245 39.1538 52.5796 32 58.6667Z" fill="#FEC500"/>
</svg>
