<svg width="41" height="40" viewBox="0 0 41 40" fill="none" xmlns="http://www.w3.org/2000/svg">
<g clip-path="url(#clip0_279_385)">
<path d="M35.6511 5.7866H10.9563L10.7181 4.83374C10.4534 3.61621 9.85786 2.62365 8.93148 1.85608C8.00509 1.0885 6.90666 0.704712 5.63619 0.704712H1.74537C1.26895 0.704712 0.871926 0.863521 0.554308 1.18114C0.23669 1.49876 0.0778809 1.92225 0.0778809 2.45161C0.0778809 2.92804 0.23669 3.32506 0.554308 3.64268C0.871926 3.96029 1.26895 4.1191 1.74537 4.1191H5.63619C6.64198 4.1191 7.22428 4.56906 7.38309 5.46898L11.2739 25.7965C11.5915 26.9082 12.2135 27.8081 13.1399 28.4963C14.0663 29.1844 15.0853 29.5285 16.197 29.5285H32.2367C32.7661 29.5285 33.1895 29.3697 33.5072 29.0521C33.8248 28.7345 33.9836 28.3375 33.9836 27.861C33.9836 26.6964 33.4013 26.1141 32.2367 26.1141H16.197C15.4559 26.1141 14.9265 25.7965 14.6089 25.1613L14.4501 24.4466H31.4426C32.5014 24.4466 33.4675 24.129 34.3409 23.4938C35.2144 22.8586 35.8099 22.038 36.1275 21.0323L40.733 11.2655V10.8685C40.733 9.4392 40.2433 8.2349 39.264 7.25558C38.2847 6.27626 37.0804 5.7866 35.6511 5.7866ZM15.3235 21.0323H13.8149L11.5915 9.20099H15.3235V21.0323ZM22.0729 21.0323H18.7379V9.20099H22.0729V21.0323ZM28.9017 21.0323H25.4873V9.20099H28.9017V21.0323ZM33.1101 19.6824V19.8412C32.9513 20.3706 32.6602 20.7146 32.2367 20.8734V9.20099H35.6511C36.6039 9.20099 37.1598 9.65095 37.3186 10.5509L33.1101 19.6824ZM20.4054 34.6104C20.4054 35.5633 20.0746 36.3705 19.4129 37.0323C18.7512 37.694 17.9439 38.0248 16.991 38.0248C16.0911 38.0248 15.3103 37.694 14.6486 37.0323C13.9869 36.3705 13.656 35.5633 13.656 34.6104C13.656 33.6576 13.9869 32.8503 14.6486 32.1886C15.3103 31.5269 16.0911 31.196 16.991 31.196C17.9439 31.196 18.7512 31.5269 19.4129 32.1886C20.0746 32.8503 20.4054 33.6576 20.4054 34.6104ZM33.9836 34.6104C33.9836 35.5633 33.6527 36.3705 32.991 37.0323C32.3293 37.694 31.522 38.0248 30.5692 38.0248C29.6163 38.0248 28.8091 37.694 28.1474 37.0323C27.4857 36.3705 27.1548 35.5633 27.1548 34.6104C27.1548 33.6576 27.4857 32.8503 28.1474 32.1886C28.8091 31.5269 29.6163 31.196 30.5692 31.196C31.522 31.196 32.3293 31.5269 32.991 32.1886C33.6527 32.8503 33.9836 33.6576 33.9836 34.6104Z" fill="#FEC500"/>
</g>
<defs>
<clipPath id="clip0_279_385">
<rect width="40.657" height="39.3846" fill="white" transform="translate(0.0769043 0.307739)"/>
</clipPath>
</defs>
</svg>
