<svg width="52" height="52" viewBox="0 0 52 52" fill="none" xmlns="http://www.w3.org/2000/svg">
<path d="M21.7538 19.4846C22.808 18.4303 23.5259 17.0871 23.8167 15.6248C24.1076 14.1625 23.9582 12.6468 23.3876 11.2694C22.817 9.89196 21.8508 8.71466 20.6111 7.88636C19.3715 7.05805 17.914 6.61595 16.4231 6.61595C14.9321 6.61595 13.4747 7.05805 12.235 7.88636C10.9953 8.71466 10.0291 9.89196 9.45852 11.2694C8.88793 12.6468 8.7386 14.1625 9.02941 15.6248C9.32022 17.0871 10.0381 18.4303 11.0923 19.4846L16.4231 24.8154L21.7538 19.4846ZM16.4231 30.9065L8.04462 22.5323C6.38846 20.8754 5.26077 18.7646 4.80414 16.4668C4.3475 14.169 4.58242 11.7875 5.47919 9.62319C6.37596 7.45891 7.89432 5.60912 9.84229 4.3077C11.7903 3.00627 14.0804 2.31165 16.4231 2.31165C18.7658 2.31165 21.0559 3.00627 23.0039 4.3077C24.9518 5.60912 26.4702 7.45891 27.367 9.62319C28.2637 11.7875 28.4987 14.169 28.042 16.4668C27.5854 18.7646 26.4577 20.8754 24.8015 22.5323L16.4231 30.9108V30.9065ZM16.4231 17.3846C15.5662 17.3846 14.7445 17.0443 14.1386 16.4384C13.5327 15.8325 13.1923 15.0107 13.1923 14.1539C13.1923 13.297 13.5327 12.4753 14.1386 11.8694C14.7445 11.2635 15.5662 10.9231 16.4231 10.9231C17.2799 10.9231 18.1017 11.2635 18.7076 11.8694C19.3135 12.4753 19.6538 13.297 19.6538 14.1539C19.6538 15.0107 19.3135 15.8325 18.7076 16.4384C18.1017 17.0443 17.2799 17.3846 16.4231 17.3846ZM35.8077 44.2L41.1385 38.8693C42.1927 37.815 42.9105 36.4717 43.2014 35.0094C43.4922 33.5471 43.3428 32.0314 42.7722 30.654C42.2017 29.2766 41.2354 28.0993 39.9958 27.271C38.7561 26.4427 37.2986 26.0006 35.8077 26.0006C34.3168 26.0006 32.8593 26.4427 31.6196 27.271C30.38 28.0993 29.4137 29.2766 28.8431 30.654C28.2725 32.0314 28.1232 33.5471 28.414 35.0094C28.7048 36.4717 29.4227 37.815 30.4769 38.8693L35.8077 44.2ZM44.1861 41.9169L35.8077 50.2911L27.4292 41.9148C25.7731 40.2579 24.6454 38.1471 24.1888 35.8493C23.7321 33.5515 23.967 31.1699 24.8638 29.0057C25.7606 26.8414 27.2789 24.9916 29.2269 23.6902C31.1749 22.3887 33.465 21.6941 35.8077 21.6941C38.1504 21.6941 40.4405 22.3887 42.3885 23.6902C44.3365 24.9916 45.8548 26.8414 46.7516 29.0057C47.6483 31.1699 47.8833 33.5515 47.4266 35.8493C46.97 38.1471 45.8423 40.26 44.1861 41.9169ZM35.8077 36.7693C34.9508 36.7693 34.1291 36.4289 33.5232 35.823C32.9173 35.2171 32.5769 34.3953 32.5769 33.5385C32.5769 32.6816 32.9173 31.8599 33.5232 31.254C34.1291 30.6481 34.9508 30.3077 35.8077 30.3077C36.6645 30.3077 37.4863 30.6481 38.0922 31.254C38.6981 31.8599 39.0385 32.6816 39.0385 33.5385C39.0385 34.3953 38.6981 35.2171 38.0922 35.823C37.4863 36.4289 36.6645 36.7693 35.8077 36.7693Z" fill="#FEC500"/>
</svg>
