<svg width="44" height="44" viewBox="0 0 44 44" fill="none" xmlns="http://www.w3.org/2000/svg">
<path d="M15.8514 41.6924C23.2676 41.6924 29.2796 35.6803 29.2796 28.2641C29.2796 20.8479 23.2676 14.8358 15.8514 14.8358C8.43512 14.8358 2.42308 20.8479 2.42308 28.2641C2.42308 35.6803 8.43512 41.6924 15.8514 41.6924Z" stroke="#FEC500" stroke-width="3" stroke-miterlimit="10"/>
<path d="M30.1799 34.5281C36.6017 34.5281 41.8077 29.3221 41.8077 22.9002C41.8077 16.4784 36.6017 11.2724 30.1799 11.2724C23.758 11.2724 18.552 16.4784 18.552 22.9002C18.552 29.3221 23.758 34.5281 30.1799 34.5281Z" stroke="#FEC500" stroke-width="3" stroke-miterlimit="10"/>
<path d="M31.0613 11.2536H29.2796L23.9158 5.8898L25.6975 2.30768H34.6434L36.4439 5.8898L31.0613 11.2536Z" stroke="#FEC500" stroke-width="3" stroke-miterlimit="10"/>
</svg>
