<svg width="43" height="38" viewBox="0 0 43 38" fill="none" xmlns="http://www.w3.org/2000/svg">
<path d="M36.7889 0.610307C33.8152 0.155393 31.0164 1.90361 30.039 4.63375H26.4397V7.73126H29.7826C30.2086 10.2953 32.2096 12.4189 34.9198 12.8342C38.2935 13.3504 41.4486 11.0327 41.9668 7.65729C42.4821 4.28182 40.1644 1.12652 36.7889 0.610307Z" fill="#FEC500"/>
<path d="M13.4829 25.503C13.4829 24.9407 13.0271 24.484 12.4639 24.484H8.0515C7.48829 24.484 7.03256 24.9407 7.03256 25.503C7.03256 26.0644 7.48829 26.522 8.0515 26.522H12.464C13.0271 26.522 13.4829 26.0644 13.4829 25.503Z" fill="#FEC500"/>
<path d="M32.3124 17.3089L23.4262 25.6852L20.3232 26.4533V19.3739H0.192322V37.0274H20.3232V32.1682L23.2285 31.6997C24.6138 31.5021 25.631 31.1527 26.8521 30.4723L30.6364 28.4921V37.0274H41.4604V19.9948C41.4604 14.4199 35.1744 14.4046 32.3124 17.3089ZM17.8458 34.5498H2.66983V21.8513H17.8458V27.0661L14.8693 27.8025C13.5642 28.1617 12.7682 29.4795 13.057 30.8017L13.0813 30.9036C13.3656 32.2041 14.6057 33.0643 15.9243 32.8766L17.8458 32.567V34.5498Z" fill="#FEC500"/>
</svg>
