<svg width="43" height="43" viewBox="0 0 43 43" fill="none" xmlns="http://www.w3.org/2000/svg">
<path d="M37.4659 1.58667H28.2191C27.7952 1.58667 27.4014 1.93313 27.1766 2.2931L24.1943 7.11524H6.76267C5.77612 7.11524 4.88479 7.81799 4.49964 8.72651C4.11448 9.63504 4.31105 10.742 4.99844 11.4515L17.6896 24.5659C17.8327 24.7133 18.1718 24.8509 18.1718 24.9578V38.4444H11.0516C10.3734 38.4444 9.82304 38.9942 9.82304 39.673C9.82304 40.3512 10.3734 40.9016 11.0516 40.9016H28.2516C28.9298 40.9016 29.4802 40.3512 29.4802 39.673C29.4802 38.9942 28.9298 38.4444 28.2516 38.4444H20.6296V25.0241C20.6296 24.908 21.0448 24.7686 21.218 24.5898L33.9049 11.5055C34.5917 10.7973 34.7876 9.63443 34.4031 8.7259C34.0185 7.81737 33.1266 7.11524 32.1394 7.11524H27.0015L28.9009 4.04381H37.4659C38.1441 4.04381 38.6945 3.49341 38.6945 2.81524C38.6945 2.13707 38.1447 1.58667 37.4659 1.58667ZM22.6745 9.57239L21.0645 12.2402C20.5847 12.1284 20.0939 12.0406 19.5853 11.9061C15.8596 10.922 12.3926 12.5074 10.5977 13.6144L6.76328 9.57239H22.6745ZM19.3869 22.8508L11.4742 14.6077C13.1519 13.6211 16.1557 12.3004 19.2714 13.1254C19.651 13.2255 20.0196 13.3177 20.3826 13.4061L17.9789 17.2921C17.6196 17.8683 17.7952 18.6257 18.3708 18.9851C18.5729 19.111 18.7978 19.1712 19.0201 19.1712C19.4299 19.1712 19.831 18.8383 20.0638 18.4648L22.8649 13.9344C24.7649 14.2747 26.3688 14.3958 27.6748 14.303L19.3869 22.8508ZM31.6812 9.57239L32.011 9.76466L29.1337 12.7642C27.9279 13.169 26.0224 13.1199 23.564 12.7224L25.4824 9.573L31.6812 9.57239Z" fill="#FEC500"/>
<path d="M14.8841 14.9259C14.7674 15.0365 14.706 15.1962 14.706 15.362C14.706 15.5218 14.7674 15.6815 14.8841 15.792C15.0009 15.9081 15.1606 15.9763 15.3203 15.9763C15.48 15.9763 15.6397 15.9088 15.7503 15.792C15.867 15.6809 15.9346 15.5218 15.9346 15.362C15.9346 15.1962 15.867 15.0426 15.7503 14.9259C15.5236 14.6986 15.1176 14.6986 14.8841 14.9259Z" fill="#FEC500"/>
<path d="M18.3917 14.7477C18.5514 14.7477 18.7111 14.6802 18.8217 14.5635C18.9384 14.4523 19.006 14.2932 19.006 14.1335C19.006 13.9676 18.9384 13.8079 18.8217 13.6973C18.6006 13.47 18.1767 13.47 17.9556 13.6973C17.8388 13.814 17.7774 13.9676 17.7774 14.1335C17.7774 14.2932 17.8388 14.4529 17.9556 14.5635C18.0667 14.6802 18.2258 14.7477 18.3917 14.7477Z" fill="#FEC500"/>
<path d="M19.1841 20.4545C19.0674 20.565 19.006 20.7247 19.006 20.8906C19.006 21.0503 19.0674 21.21 19.1841 21.3206C19.3009 21.4367 19.4606 21.5049 19.6203 21.5049C19.78 21.5049 19.9397 21.4373 20.0564 21.3206C20.167 21.2094 20.2346 21.0503 20.2346 20.8906C20.2346 20.7247 20.167 20.565 20.0503 20.4545C19.8236 20.2272 19.412 20.2272 19.1841 20.4545Z" fill="#FEC500"/>
<path d="M22.2556 16.1545C22.1395 16.265 22.078 16.4248 22.078 16.5906C22.078 16.7503 22.1395 16.91 22.2556 17.0206C22.3723 17.1367 22.5258 17.2049 22.6923 17.2049C22.852 17.2049 23.0117 17.1373 23.1278 17.0206C23.239 16.9094 23.3066 16.7503 23.3066 16.5906C23.3066 16.4248 23.239 16.2712 23.1278 16.1545C22.9012 15.9272 22.4896 15.921 22.2556 16.1545Z" fill="#FEC500"/>
</svg>
