<svg width="53" height="52" viewBox="0 0 53 52" fill="none" xmlns="http://www.w3.org/2000/svg">
<path d="M37.7 43.2307L41.5769 46.4615V47.5384H11.4231V46.4615L15.3 43.2307H11.4231C10.2806 43.2307 9.18493 42.7769 8.37708 41.969C7.56923 41.1612 7.11539 40.0655 7.11539 38.923V15.2307C7.11539 12.9458 8.02308 10.7544 9.63877 9.13874C11.2545 7.52305 13.4458 6.61536 15.7308 6.61536H37.2692C39.5542 6.61536 41.7455 7.52305 43.3612 9.13874C44.9769 10.7544 45.8846 12.9458 45.8846 15.2307V38.923C45.8846 40.0655 45.4308 41.1612 44.6229 41.969C43.8151 42.7769 42.7194 43.2307 41.5769 43.2307H37.7ZM15.7308 10.923C14.5883 10.923 13.4926 11.3769 12.6848 12.1847C11.8769 12.9926 11.4231 14.0883 11.4231 15.2307V38.923H41.5769V15.2307C41.5769 14.0883 41.1231 12.9926 40.3152 12.1847C39.5074 11.3769 38.4117 10.923 37.2692 10.923H15.7308ZM26.5 36.7692C25.3575 36.7692 24.2619 36.3154 23.454 35.5075C22.6462 34.6997 22.1923 33.604 22.1923 32.4615C22.1923 31.319 22.6462 30.2234 23.454 29.4155C24.2619 28.6077 25.3575 28.1538 26.5 28.1538C27.6425 28.1538 28.7381 28.6077 29.546 29.4155C30.3538 30.2234 30.8077 31.319 30.8077 32.4615C30.8077 33.604 30.3538 34.6997 29.546 35.5075C28.7381 36.3154 27.6425 36.7692 26.5 36.7692ZM13.5769 15.2307H39.4231V23.8461H13.5769V15.2307Z" fill="#FEC500"/>
</svg>
